<svg width="680" height="620" viewBox="0 0 680 620" xmlns="http://www.w3.org/2000/svg">

    <rect x="180" y="40" width="360" height="555" rx="12" fill="#F5F0E8" stroke="#8A7F6E" stroke-width="1" stroke-dasharray="6 3"/>
    <text x="360" y="28" text-anchor="middle" font-family="Georgia, serif" font-size="15" font-weight="bold" fill="#2C2C2A">Salon booking system</text>

    <ellipse cx="360" cy="95" rx="100" ry="24" fill="#C8A97E" stroke="#B8956A" stroke-width="1"/>
    <text x="360" y="100" text-anchor="middle" font-family="Arial, sans-serif" font-size="12" fill="#2C2C2A">Se ledige tider</text>

    <ellipse cx="360" cy="160" rx="100" ry="24" fill="#C8A97E" stroke="#B8956A" stroke-width="1"/>
    <text x="360" y="165" text-anchor="middle" font-family="Arial, sans-serif" font-size="12" fill="#2C2C2A">Vælg frisør og service</text>

    <ellipse cx="360" cy="225" rx="100" ry="24" fill="#C8A97E" stroke="#B8956A" stroke-width="1"/>
    <text x="360" y="230" text-anchor="middle" font-family="Arial, sans-serif" font-size="12" fill="#2C2C2A">Book en tid</text>

    <ellipse cx="360" cy="295" rx="100" ry="24" fill="#C8A97E" stroke="#B8956A" stroke-width="1"/>
    <text x="360" y="300" text-anchor="middle" font-family="Arial, sans-serif" font-size="12" fill="#2C2C2A">Aflyse / ændre booking</text>

    <ellipse cx="360" cy="360" rx="100" ry="24" fill="#C8A97E" stroke="#B8956A" stroke-width="1"/>
    <text x="360" y="365" text-anchor="middle" font-family="Arial, sans-serif" font-size="12" fill="#2C2C2A">Se egne bookinger</text>

    <ellipse cx="360" cy="425" rx="100" ry="24" fill="#C8A97E" stroke="#B8956A" stroke-width="1"/>
    <text x="360" y="430" text-anchor="middle" font-family="Arial, sans-serif" font-size="12" fill="#2C2C2A">Registrer / log ind</text>

    <ellipse cx="360" cy="495" rx="100" ry="24" fill="#8A7F6E" stroke="#2C2C2A" stroke-width="1"/>
    <text x="360" y="500" text-anchor="middle" font-family="Arial, sans-serif" font-size="12" fill="#F5F0E8">Administrer frisører</text>

    <ellipse cx="360" cy="560" rx="110" ry="24" fill="#8A7F6E" stroke="#2C2C2A" stroke-width="1"/>
    <text x="360" y="565" text-anchor="middle" font-family="Arial, sans-serif" font-size="12" fill="#F5F0E8">Administrer services og tider</text>

    <circle cx="75" cy="295" r="20" fill="none" stroke="#2C2C2A" stroke-width="1.5"/>
    <line x1="75" y1="315" x2="75" y2="365" stroke="#2C2C2A" stroke-width="1.5"/>
    <line x1="45" y1="338" x2="105" y2="338" stroke="#2C2C2A" stroke-width="1.5"/>
    <line x1="75" y1="365" x2="50" y2="395" stroke="#2C2C2A" stroke-width="1.5"/>
    <line x1="75" y1="365" x2="100" y2="395" stroke="#2C2C2A" stroke-width="1.5"/>
    <text x="75" y="412" text-anchor="middle" font-family="Arial, sans-serif" font-size="13" font-weight="bold" fill="#2C2C2A">Kunde</text>

    <circle cx="605" cy="520" r="20" fill="none" stroke="#2C2C2A" stroke-width="1.5"/>
    <line x1="605" y1="540" x2="605" y2="590" stroke="#2C2C2A" stroke-width="1.5"/>
    <line x1="575" y1="563" x2="635" y2="563" stroke="#2C2C2A" stroke-width="1.5"/>
    <line x1="605" y1="590" x2="580" y2="615" stroke="#2C2C2A" stroke-width="1.5"/>
    <line x1="605" y1="590" x2="630" y2="615" stroke="#2C2C2A" stroke-width="1.5"/>
    <text x="605" y="618" text-anchor="middle" font-family="Arial, sans-serif" font-size="13" font-weight="bold" fill="#2C2C2A">Admin</text>

    <line x1="95" y1="278" x2="260" y2="95" stroke="#8A7F6E" stroke-width="0.8"/>
    <line x1="95" y1="285" x2="260" y2="160" stroke="#8A7F6E" stroke-width="0.8"/>
    <line x1="95" y1="292" x2="260" y2="225" stroke="#8A7F6E" stroke-width="0.8"/>
    <line x1="95" y1="295" x2="260" y2="295" stroke="#8A7F6E" stroke-width="0.8"/>
    <line x1="95" y1="302" x2="260" y2="360" stroke="#8A7F6E" stroke-width="0.8"/>
    <line x1="95" y1="308" x2="260" y2="425" stroke="#8A7F6E" stroke-width="0.8"/>

    <line x1="585" y1="510" x2="460" y2="495" stroke="#8A7F6E" stroke-width="0.8"/>
    <line x1="585" y1="516" x2="470" y2="560" stroke="#8A7F6E" stroke-width="0.8"/>

    <line x1="360" y1="249" x2="360" y2="271" stroke="#8A7F6E" stroke-width="0.8" stroke-dasharray="4 2"/>
    <text x="368" y="263" font-family="Arial, sans-serif" font-size="10" fill="#8A7F6E" font-style="italic">«include»</text>

    <rect x="460" y="263" width="140" height="40" rx="6" fill="#EDE8DF" stroke="#D4C9B8" stroke-width="1"/>
    <text x="530" y="279" text-anchor="middle" font-family="Arial, sans-serif" font-size="10" fill="#2C2C2A">24t-aflysningsregel</text>
    <text x="530" y="295" text-anchor="middle" font-family="Arial, sans-serif" font-size="10" fill="#8A7F6E">server-side validering</text>
    <line x1="460" y1="283" x2="460" y2="283" stroke="#8A7F6E" stroke-width="0.5" stroke-dasharray="3 2"/>

</svg>